<svg data-v-0dd9719b="" version="1.0" xmlns="http://www.w3.org/2000/svg" xmlns:xlink="http://www.w3.org/1999/xlink" width="100%" height="100%" viewBox="0 0 340.000000 250.000000" preserveAspectRatio="xMidYMid meet" color-interpolation-filters="sRGB" style="margin: auto;"> <rect data-v-0dd9719b="" x="0" y="0" width="100%" height="100%" fill="#feffff" fill-opacity="1" class="background"></rect> <!----> <g data-v-0dd9719b="" fill="#333" class="iconlinesvg-g iconlinesvg" transform="translate(101.11085510253906,90.33749771118164)"><g class="tp-name" transform="translate(0,0)"><g transform="translate(0, 0)"><g><g class="imagesvg"><g><rect fill="#333" fill-opacity="0" stroke-width="2" x="0" y="0" width="57.44266139522031" height="55.453007486601074" class="image-rect"></rect> <svg x="0" y="0" width="57.44266139522031" height="55.453007486601074" filtersec="colorsb5444012995" class="image-svg-svg primary" style="overflow: visible;"><svg xmlns="http://www.w3.org/2000/svg" viewBox="0.010009169578552246 -0.03556662052869797 152.4443817138672 147.1644744873047"><title>资源 74</title><path d="M77.34 31c14.59 0 29.18-.13 43.77 0 8.9.11 17-1.86 24.18-7.3 1.73-1.31 3.57-3.94 6-2 2.15 1.73.75 4.4.3 6.62-2.82 13.59-14 22.31-29.43 23.37-6.42.44-14.47-2.71-18.86 1.65s-.41 12.31-.54 18.68c-.42 21.3-.13 42.61-.19 63.92 0 2.78.76 6.32-2.13 7.85-3.21 1.69-6-1-8.35-2.84-8.09-6.34-11.23-15.23-11.29-25.3-.09-17.15 0-34.3 0-51.45 0-4-.07-7.88-3.69-10.56-1.29-1-2.72-1.71-4.34-1.19-2 .63-1.57 2.31-1.56 3.88.19 21 .3 42.08.5 63.12a34.24 34.24 0 0 0 7 21.09c1.2 1.57 3.53 3.15 2 5.33-1.32 1.87-3.85 1.2-5.87.85-11.42-1.94-18.45-8.94-22.31-19.49-2.92-8-2.79-16.32-2.75-24.65.07-13.25-.06-26.5 0-39.75 0-7.37-3.28-10.83-10.85-11.09-11.72-.4-22.92.54-32.62 8.06-1.38 1.07-2.88 2.75-4.83 1.52-2.29-1.41-1.3-3.7-.99-5.69 2.16-14.05 14.39-24.27 30-24.51s31.26-.05 46.9-.05z" fill="#10783e"></path><path d="M87 .05h56.29c2.5 0 5.73-.76 6.91 2.25 1.07 2.7-1.08 4.87-2.68 6.93C140.41 18.41 130.79 22 119.45 22c-28.66-.05-57.33.13-86-.09-9.39-.07-18.14 1.24-25.94 6.81-1.42 1-3 2.6-4.91 1.46-2.19-1.32-1.52-3.67-1.27-5.67C2.92 11.77 16.62.24 30.72.1 49.48-.08 68.25.06 87 .05z" fill="#d91e41"></path></svg></svg> <!----></g></g></g></g><g transform="translate(61, 4.303652180800537)"><g data-gra="path-name" fill="#333" transform="scale(1)"><path d="M17.14 0.63L17.14 0.63Q10.22 0.63 6.35-3.49Q2.48-7.62 2.48-15.30L2.48-15.30L2.48-18.03Q2.48-26.15 6.03-30.56Q9.58-34.98 16.22-34.98L16.22-34.98Q22.69-34.98 25.96-30.83Q29.23-26.69 29.29-18.57L29.29-18.57L29.29-14.16L11.43-14.16Q11.62-10.35 13.11-8.59Q14.60-6.82 17.71-6.82L17.71-6.82Q22.22-6.82 25.23-9.90L25.23-9.90L28.75-4.48Q27.10-2.19 23.96-0.78Q20.82 0.63 17.14 0.63ZM11.49-20.44L11.49-20.44L20.47-20.44L20.47-21.26Q20.41-24.34 19.46-25.93Q18.50-27.52 16.15-27.52Q13.81-27.52 12.74-25.83Q11.68-24.15 11.49-20.44Z" transform="translate(-2.4755859375, 46.2109375)"></path></g></g><g transform="translate(91, 4.303652180800537)"><g data-gra="path-name" fill="#333" transform="scale(1)"><path d="M18.47-9.20L18.47-9.20Q18.47-10.35 17.38-11.31Q16.28-12.28 12.50-13.93L12.50-13.93Q6.95-16.19 4.87-18.60Q2.79-21.01 2.79-24.60L2.79-24.60Q2.79-29.10 6.05-32.04Q9.30-34.98 14.66-34.98L14.66-34.98Q20.31-34.98 23.71-32.06Q27.10-29.14 27.10-24.22L27.10-24.22L18.12-24.22Q18.12-28.41 14.63-28.41L14.63-28.41Q13.20-28.41 12.28-27.52Q11.36-26.63 11.36-25.04L11.36-25.04Q11.36-23.90 12.38-23.03Q13.39-22.15 17.17-20.53L17.17-20.53Q22.66-18.50 24.93-16.01Q27.20-13.52 27.20-9.55L27.20-9.55Q27.20-4.95 23.74-2.16Q20.28 0.63 14.66 0.63L14.66 0.63Q10.89 0.63 8.00-0.84Q5.11-2.32 3.48-4.95Q1.84-7.59 1.84-10.63L1.84-10.63L10.38-10.63Q10.44-8.28 11.47-7.11Q12.50-5.94 14.85-5.94L14.85-5.94Q18.47-5.94 18.47-9.20Z" transform="translate(-1.8408203125, 46.2109375)"></path></g></g><g transform="translate(120, 4.303652180800537)"><g data-gra="path-name" fill="#333" transform="scale(1)"><path d="M4.73-42.78L13.71-42.78L13.71-34.34L18.31-34.34L18.31-27.58L13.71-27.58L13.71-10.54Q13.71-8.51 14.27-7.74Q14.82-6.98 16.41-6.98L16.41-6.98Q17.71-6.98 18.54-7.20L18.54-7.20L18.47-0.22Q16.19 0.63 13.52 0.63L13.52 0.63Q4.82 0.63 4.73-9.33L4.73-9.33L4.73-27.58L0.76-27.58L0.76-34.34L4.73-34.34L4.73-42.78Z" transform="translate(-0.76171875, 46.2109375)"></path></g></g></g> <g data-gra="path-slogan" fill-rule="" class="tp-slogan" fill="#333" transform="translate(51.90414619445801,61.453006744384766)"><!----> <!----> <g transform="scale(1, 1)"><g transform="scale(1)"><path d="M1.08-7.87L1.08 0L2.00 0L2.00-4.33C2.00-4.68 1.99-5.07 1.96-5.50C1.92-5.92 1.90-6.31 1.87-6.66L1.92-6.66L2.54-4.91L4.07-0.79L4.63-0.79L6.14-4.91L6.78-6.66L6.83-6.66C6.80-6.31 6.77-5.92 6.74-5.50C6.71-5.07 6.70-4.68 6.70-4.33L6.70 0L7.64 0L7.64-7.87L6.47-7.87L4.96-3.65L4.40-2.04L4.36-2.04L3.78-3.65L2.26-7.87ZM13.15-3.20L10.79-3.20L11.16-4.40C11.30-4.84 11.44-5.28 11.57-5.72C11.70-6.15 11.82-6.60 11.94-7.06L11.99-7.06C12.12-6.60 12.24-6.15 12.37-5.72C12.50-5.28 12.64-4.84 12.78-4.40ZM13.40-2.40L14.15 0L15.22 0L12.55-7.87L11.42-7.87L8.76 0L9.78 0L10.54-2.40ZM16.33-7.87L16.33 0L17.33 0L17.33-2.50L18.68-4.09L21.04 0L22.15 0L19.31-4.87L21.77-7.87L20.64-7.87L17.36-3.92L17.33-3.92L17.33-7.87ZM23.28-7.87L23.28 0L27.94 0L27.94-0.85L24.28-0.85L24.28-3.71L27.26-3.71L27.26-4.56L24.28-4.56L24.28-7.03L27.82-7.03L27.82-7.87ZM30.60-4.14L30.60-7.07L31.92-7.07C32.54-7.07 33.01-6.96 33.34-6.76C33.66-6.55 33.83-6.18 33.83-5.66C33.83-5.15 33.66-4.77 33.34-4.52C33.01-4.27 32.54-4.14 31.92-4.14ZM33.92 0L35.05 0L33.06-3.43C33.60-3.57 34.02-3.82 34.34-4.19C34.66-4.56 34.82-5.05 34.82-5.66C34.82-6.07 34.76-6.42 34.62-6.70C34.48-6.98 34.29-7.20 34.05-7.38C33.81-7.56 33.51-7.68 33.17-7.76C32.83-7.83 32.46-7.87 32.06-7.87L29.60-7.87L29.60 0L30.60 0L30.60-3.32L32.03-3.32Z" transform="translate(-1.08, 7.872)"></path></g></g></g></g><defs v-gra="od"></defs></svg>